<svg preserveAspectRatio="none" width="100%" height="100%" overflow="visible" style="display: block;" viewBox="0 0 16 20.176" fill="none" xmlns="http://www.w3.org/2000/svg">
<path id="Vector" d="M8 14.9051C8.16305 14.9051 8.29905 14.8507 8.408 14.7417C8.51695 14.6328 8.57143 14.4971 8.57143 14.3349V9.016C8.57143 8.85371 8.51657 8.71809 8.40686 8.60914C8.29714 8.50019 8.16114 8.44533 7.99886 8.44457C7.83657 8.44381 7.70095 8.49867 7.592 8.60914C7.48305 8.71962 7.42857 8.85524 7.42857 9.016V14.3349C7.42857 14.4964 7.48343 14.632 7.59314 14.7417C7.70286 14.8514 7.83886 14.9063 8.00114 14.9063M8 6.64229C8.19962 6.64229 8.36686 6.57486 8.50171 6.44C8.63581 6.30514 8.70286 6.13829 8.70286 5.93943C8.70286 5.73981 8.63543 5.57257 8.50057 5.43771C8.36571 5.30286 8.19886 5.23581 8 5.23657C7.80114 5.23733 7.63429 5.30476 7.49943 5.43886C7.36457 5.57295 7.29714 5.74019 7.29714 5.94057C7.29714 6.14095 7.36457 6.30781 7.49943 6.44114C7.63429 6.57448 7.80114 6.64152 8 6.64229ZM8 20.176C7.89638 20.176 7.78705 20.1665 7.672 20.1474C7.55695 20.1284 7.45029 20.0998 7.352 20.0617C5.1021 19.2046 3.31429 17.7509 1.98857 15.7006C0.662857 13.6503 0 11.4309 0 9.04229V4.14743C0 3.75581 0.111619 3.40305 0.334857 3.08914C0.557334 2.77524 0.845715 2.54781 1.2 2.40686L7.35429 0.121143C7.57676 0.0403809 7.792 0 8 0C8.208 0 8.42362 0.0403809 8.64686 0.121143L14.8 2.40686C15.1535 2.54857 15.4419 2.776 15.6651 3.08914C15.8884 3.40305 16 3.75581 16 4.14743V9.04229C16 11.4309 15.3371 13.6503 14.0114 15.7006C12.6857 17.7509 10.8983 19.2046 8.64914 20.0617C8.54933 20.0998 8.44229 20.1284 8.328 20.1474C8.21371 20.1665 8.10438 20.176 8 20.176ZM8 19.0994C9.98095 18.4709 11.619 17.2137 12.9143 15.328C14.2095 13.4423 14.8571 11.347 14.8571 9.04229V4.12571C14.8571 3.97943 14.8168 3.84762 14.736 3.73029C14.656 3.61295 14.5425 3.52533 14.3954 3.46743L8.24229 1.18171C8.16914 1.15124 8.08838 1.136 8 1.136C7.91162 1.136 7.83086 1.15124 7.75771 1.18171L1.60457 3.46743C1.45752 3.52533 1.344 3.61295 1.264 3.73029C1.18324 3.84762 1.14286 3.97943 1.14286 4.12571V9.04229C1.14286 11.347 1.79048 13.4423 3.08571 15.328C4.38095 17.2137 6.01905 18.4709 8 19.0994Z" fill="var(--fill-0, #2E3033)"/>
</svg>
