<svg preserveAspectRatio="none" width="100%" height="100%" overflow="visible" style="display: block;" viewBox="0 0 17 17" fill="none" xmlns="http://www.w3.org/2000/svg">
<path id="Vector" d="M8.364 10.1V9.6032C8.36362 9.27578 8.44948 8.95404 8.61295 8.67036C8.77642 8.38667 9.01173 8.15105 9.2952 7.9872C10.196 7.4592 10.5064 6.3416 9.9784 5.4408C9.4504 4.54 8.3328 4.2296 7.432 4.7576C6.872 5.1 6.5 5.6896 6.5 6.3728M8.5 12.5H8.4936M16.5 8.5C16.5 4.0816 12.9184 0.5 8.5 0.5C4.0816 0.5 0.5 4.0816 0.5 8.5C0.5 12.9184 4.0816 16.5 8.5 16.5C12.9184 16.5 16.5 12.9184 16.5 8.5Z" stroke="var(--stroke-0, #2E3033)" stroke-miterlimit="10" stroke-linecap="round" stroke-linejoin="round"/>
</svg>
