<svg preserveAspectRatio="none" width="100%" height="100%" overflow="visible" style="display: block;" viewBox="0 0 11 6.6" fill="none" xmlns="http://www.w3.org/2000/svg">
<path id="Vector" d="M0.5 1.2C0.223858 1.2 0 1.42386 0 1.7C0 1.97614 0.223858 2.2 0.5 2.2V1.7V1.2ZM2.5 2.2C2.77614 2.2 3 1.97614 3 1.7C3 1.42386 2.77614 1.2 2.5 1.2V1.7V2.2ZM0.5 4.4C0.223858 4.4 0 4.62386 0 4.9C0 5.17614 0.223858 5.4 0.5 5.4V4.9V4.4ZM2.5 5.4C2.77614 5.4 3 5.17614 3 4.9C3 4.62386 2.77614 4.4 2.5 4.4V4.9V5.4ZM5.2 6.1L5.2 6.6L6.2 6.6L6.2 6.1L5.7 6.1L5.2 6.1ZM10 6.1V6.6H11V6.1H10.5H10ZM0.5 1.7V2.2H2.5V1.7V1.2H0.5V1.7ZM0.5 4.9V5.4C0.501525 5.4 0.503053 5.4 0.504581 5.4C0.50611 5.4 0.507641 5.4 0.509173 5.4C0.510705 5.4 0.512239 5.4 0.513774 5.4C0.51531 5.4 0.516847 5.4 0.518385 5.4C0.519924 5.4 0.521464 5.4 0.523006 5.4C0.524548 5.4 0.526091 5.4 0.527636 5.4C0.529182 5.4 0.530728 5.4 0.532277 5.4C0.533825 5.4 0.535375 5.4 0.536926 5.4C0.538477 5.4 0.54003 5.4 0.541585 5.4C0.54314 5.4 0.544696 5.4 0.546253 5.4C0.547811 5.4 0.54937 5.4 0.550931 5.4C0.552492 5.4 0.554054 5.4 0.555618 5.4C0.557182 5.4 0.558747 5.4 0.560314 5.4C0.561881 5.4 0.563449 5.4 0.565019 5.4C0.566589 5.4 0.56816 5.4 0.569733 5.4C0.571306 5.4 0.57288 5.4 0.574456 5.4C0.576031 5.4 0.577609 5.4 0.579187 5.4C0.580766 5.4 0.582346 5.4 0.583928 5.4C0.58551 5.4 0.587093 5.4 0.588677 5.4C0.590262 5.4 0.591848 5.4 0.593435 5.4C0.595022 5.4 0.596611 5.4 0.598201 5.4C0.599791 5.4 0.601383 5.4 0.602976 5.4C0.604569 5.4 0.606164 5.4 0.607759 5.4C0.609355 5.4 0.610952 5.4 0.612551 5.4C0.614149 5.4 0.615749 5.4 0.617351 5.4C0.618952 5.4 0.620555 5.4 0.622159 5.4C0.623763 5.4 0.625368 5.4 0.626975 5.4C0.628581 5.4 0.630189 5.4 0.631799 5.4C0.633408 5.4 0.635019 5.4 0.636631 5.4C0.638243 5.4 0.639856 5.4 0.641471 5.4C0.643085 5.4 0.644701 5.4 0.646318 5.4C0.647936 5.4 0.649554 5.4 0.651174 5.4C0.652794 5.4 0.654415 5.4 0.656037 5.4C0.657659 5.4 0.659283 5.4 0.660908 5.4C0.662532 5.4 0.664158 5.4 0.665786 5.4C0.667413 5.4 0.669042 5.4 0.670671 5.4C0.672301 5.4 0.673932 5.4 0.675564 5.4C0.677196 5.4 0.67883 5.4 0.680464 5.4C0.682099 5.4 0.683735 5.4 0.685372 5.4C0.687009 5.4 0.688647 5.4 0.690286 5.4C0.691926 5.4 0.693566 5.4 0.695208 5.4C0.69685 5.4 0.698493 5.4 0.700137 5.4C0.701781 5.4 0.703426 5.4 0.705072 5.4C0.706719 5.4 0.708366 5.4 0.710015 5.4C0.711663 5.4 0.713313 5.4 0.714964 5.4C0.716615 5.4 0.718267 5.4 0.71992 5.4C0.721573 5.4 0.723227 5.4 0.724882 5.4C0.726537 5.4 0.728194 5.4 0.729851 5.4C0.731508 5.4 0.733167 5.4 0.734826 5.4C0.736486 5.4 0.738147 5.4 0.739808 5.4C0.74147 5.4 0.743133 5.4 0.744796 5.4C0.74646 5.4 0.748125 5.4 0.749791 5.4C0.751457 5.4 0.753124 5.4 0.754791 5.4C0.756459 5.4 0.758128 5.4 0.759798 5.4C0.761468 5.4 0.763139 5.4 0.764811 5.4C0.766483 5.4 0.768156 5.4 0.769829 5.4C0.771503 5.4 0.773178 5.4 0.774854 5.4C0.77653 5.4 0.778207 5.4 0.779884 5.4C0.781562 5.4 0.783241 5.4 0.78492 5.4C0.7866 5.4 0.788281 5.4 0.789962 5.4C0.791644 5.4 0.793326 5.4 0.795009 5.4C0.796693 5.4 0.798377 5.4 0.800062 5.4C0.801747 5.4 0.803433 5.4 0.80512 5.4C0.806807 5.4 0.808495 5.4 0.810184 5.4C0.811873 5.4 0.813562 5.4 0.815253 5.4C0.816943 5.4 0.818635 5.4 0.820327 5.4C0.822019 5.4 0.823712 5.4 0.825406 5.4C0.8271 5.4 0.828795 5.4 0.83049 5.4C0.832186 5.4 0.833882 5.4 0.835579 5.4C0.837277 5.4 0.838975 5.4 0.840674 5.4C0.842373 5.4 0.844072 5.4 0.845773 5.4C0.847473 5.4 0.849174 5.4 0.850876 5.4C0.852578 5.4 0.854281 5.4 0.855985 5.4C0.857688 5.4 0.859393 5.4 0.861098 5.4C0.862803 5.4 0.864509 5.4 0.866216 5.4C0.867922 5.4 0.86963 5.4 0.871338 5.4C0.873046 5.4 0.874755 5.4 0.876464 5.4C0.878174 5.4 0.879884 5.4 0.881595 5.4C0.883306 5.4 0.885018 5.4 0.88673 5.4C0.888442 5.4 0.890155 5.4 0.891869 5.4C0.893583 5.4 0.895297 5.4 0.897012 5.4C0.898728 5.4 0.900443 5.4 0.90216 5.4C0.903876 5.4 0.905593 5.4 0.907311 5.4C0.909029 5.4 0.910747 5.4 0.912466 5.4C0.914185 5.4 0.915905 5.4 0.917625 5.4C0.919345 5.4 0.921066 5.4 0.922788 5.4C0.924509 5.4 0.926231 5.4 0.927954 5.4C0.929677 5.4 0.9314 5.4 0.933124 5.4C0.934848 5.4 0.936572 5.4 0.938297 5.4C0.940022 5.4 0.941748 5.4 0.943474 5.4C0.9452 5.4 0.946927 5.4 0.948654 5.4C0.950382 5.4 0.95211 5.4 0.953838 5.4C0.955566 5.4 0.957295 5.4 0.959025 5.4C0.960754 5.4 0.962484 5.4 0.964214 5.4C0.965945 5.4 0.967676 5.4 0.969407 5.4C0.971139 5.4 0.972871 5.4 0.974603 5.4C0.976336 5.4 0.978069 5.4 0.979802 5.4C0.981535 5.4 0.983269 5.4 0.985004 5.4C0.986738 5.4 0.988473 5.4 0.990208 5.4C0.991943 5.4 0.993679 5.4 0.995415 5.4C0.997151 5.4 0.998888 5.4 1.00062 5.4C1.00236 5.4 1.0041 5.4 1.00584 5.4C1.00757 5.4 1.00931 5.4 1.01105 5.4C1.01279 5.4 1.01453 5.4 1.01627 5.4C1.01801 5.4 1.01975 5.4 1.02149 5.4C1.02323 5.4 1.02497 5.4 1.02671 5.4C1.02845 5.4 1.03019 5.4 1.03193 5.4C1.03368 5.4 1.03542 5.4 1.03716 5.4C1.0389 5.4 1.04064 5.4 1.04239 5.4C1.04413 5.4 1.04587 5.4 1.04762 5.4C1.04936 5.4 1.05111 5.4 1.05285 5.4C1.05459 5.4 1.05634 5.4 1.05808 5.4C1.05983 5.4 1.06157 5.4 1.06332 5.4C1.06506 5.4 1.06681 5.4 1.06856 5.4C1.0703 5.4 1.07205 5.4 1.07379 5.4C1.07554 5.4 1.07729 5.4 1.07903 5.4C1.08078 5.4 1.08253 5.4 1.08428 5.4C1.08602 5.4 1.08777 5.4 1.08952 5.4C1.09127 5.4 1.09301 5.4 1.09476 5.4C1.09651 5.4 1.09826 5.4 1.10001 5.4C1.10176 5.4 1.10351 5.4 1.10525 5.4C1.107 5.4 1.10875 5.4 1.1105 5.4C1.11225 5.4 1.114 5.4 1.11575 5.4C1.1175 5.4 1.11925 5.4 1.121 5.4C1.12275 5.4 1.1245 5.4 1.12625 5.4C1.128 5.4 1.12975 5.4 1.1315 5.4C1.13325 5.4 1.135 5.4 1.13675 5.4C1.1385 5.4 1.14025 5.4 1.142 5.4C1.14376 5.4 1.14551 5.4 1.14726 5.4C1.14901 5.4 1.15076 5.4 1.15251 5.4C1.15426 5.4 1.15601 5.4 1.15776 5.4C1.15952 5.4 1.16127 5.4 1.16302 5.4C1.16477 5.4 1.16652 5.4 1.16827 5.4C1.17002 5.4 1.17178 5.4 1.17353 5.4C1.17528 5.4 1.17703 5.4 1.17878 5.4C1.18053 5.4 1.18229 5.4 1.18404 5.4C1.18579 5.4 1.18754 5.4 1.18929 5.4C1.19104 5.4 1.19279 5.4 1.19455 5.4C1.1963 5.4 1.19805 5.4 1.1998 5.4C1.20155 5.4 1.2033 5.4 1.20505 5.4C1.20681 5.4 1.20856 5.4 1.21031 5.4C1.21206 5.4 1.21381 5.4 1.21556 5.4C1.21731 5.4 1.21906 5.4 1.22081 5.4C1.22256 5.4 1.22431 5.4 1.22607 5.4C1.22782 5.4 1.22957 5.4 1.23132 5.4C1.23307 5.4 1.23482 5.4 1.23657 5.4C1.23832 5.4 1.24007 5.4 1.24182 5.4C1.24357 5.4 1.24532 5.4 1.24707 5.4C1.24882 5.4 1.25057 5.4 1.25232 5.4C1.25406 5.4 1.25581 5.4 1.25756 5.4C1.25931 5.4 1.26106 5.4 1.26281 5.4C1.26456 5.4 1.26631 5.4 1.26805 5.4C1.2698 5.4 1.27155 5.4 1.2733 5.4C1.27504 5.4 1.27679 5.4 1.27854 5.4C1.28029 5.4 1.28203 5.4 1.28378 5.4C1.28553 5.4 1.28727 5.4 1.28902 5.4C1.29077 5.4 1.29251 5.4 1.29426 5.4C1.296 5.4 1.29775 5.4 1.29949 5.4C1.30124 5.4 1.30298 5.4 1.30473 5.4C1.30647 5.4 1.30822 5.4 1.30996 5.4C1.31171 5.4 1.31345 5.4 1.31519 5.4C1.31694 5.4 1.31868 5.4 1.32042 5.4C1.32216 5.4 1.32391 5.4 1.32565 5.4C1.32739 5.4 1.32913 5.4 1.33087 5.4C1.33262 5.4 1.33436 5.4 1.3361 5.4C1.33784 5.4 1.33958 5.4 1.34132 5.4C1.34306 5.4 1.3448 5.4 1.34654 5.4C1.34828 5.4 1.35001 5.4 1.35175 5.4C1.35349 5.4 1.35523 5.4 1.35697 5.4C1.3587 5.4 1.36044 5.4 1.36218 5.4C1.36392 5.4 1.36565 5.4 1.36739 5.4C1.36912 5.4 1.37086 5.4 1.37259 5.4C1.37433 5.4 1.37606 5.4 1.3778 5.4C1.37953 5.4 1.38126 5.4 1.383 5.4C1.38473 5.4 1.38646 5.4 1.3882 5.4C1.38993 5.4 1.39166 5.4 1.39339 5.4C1.39512 5.4 1.39685 5.4 1.39858 5.4C1.40031 5.4 1.40204 5.4 1.40377 5.4C1.4055 5.4 1.40723 5.4 1.40896 5.4C1.41068 5.4 1.41241 5.4 1.41414 5.4C1.41587 5.4 1.41759 5.4 1.41932 5.4C1.42104 5.4 1.42277 5.4 1.42449 5.4C1.42622 5.4 1.42794 5.4 1.42967 5.4C1.43139 5.4 1.43311 5.4 1.43483 5.4C1.43656 5.4 1.43828 5.4 1.44 5.4C1.44172 5.4 1.44344 5.4 1.44516 5.4C1.44688 5.4 1.4486 5.4 1.45032 5.4C1.45204 5.4 1.45375 5.4 1.45547 5.4C1.45719 5.4 1.45891 5.4 1.46062 5.4C1.46234 5.4 1.46405 5.4 1.46577 5.4C1.46748 5.4 1.4692 5.4 1.47091 5.4C1.47262 5.4 1.47433 5.4 1.47605 5.4C1.47776 5.4 1.47947 5.4 1.48118 5.4C1.48289 5.4 1.4846 5.4 1.48631 5.4C1.48802 5.4 1.48973 5.4 1.49143 5.4C1.49314 5.4 1.49485 5.4 1.49655 5.4C1.49826 5.4 1.49997 5.4 1.50167 5.4C1.50338 5.4 1.50508 5.4 1.50678 5.4C1.50849 5.4 1.51019 5.4 1.51189 5.4C1.51359 5.4 1.51529 5.4 1.51699 5.4C1.51869 5.4 1.52039 5.4 1.52209 5.4C1.52379 5.4 1.52548 5.4 1.52718 5.4C1.52888 5.4 1.53057 5.4 1.53227 5.4C1.53396 5.4 1.53566 5.4 1.53735 5.4C1.53904 5.4 1.54074 5.4 1.54243 5.4C1.54412 5.4 1.54581 5.4 1.5475 5.4C1.54919 5.4 1.55088 5.4 1.55257 5.4C1.55426 5.4 1.55594 5.4 1.55763 5.4C1.55932 5.4 1.561 5.4 1.56269 5.4C1.56437 5.4 1.56605 5.4 1.56774 5.4C1.56942 5.4 1.5711 5.4 1.57278 5.4C1.57446 5.4 1.57614 5.4 1.57782 5.4C1.5795 5.4 1.58118 5.4 1.58285 5.4C1.58453 5.4 1.58621 5.4 1.58788 5.4C1.58956 5.4 1.59123 5.4 1.59291 5.4C1.59458 5.4 1.59625 5.4 1.59792 5.4C1.59959 5.4 1.60126 5.4 1.60293 5.4C1.6046 5.4 1.60627 5.4 1.60794 5.4C1.6096 5.4 1.61127 5.4 1.61294 5.4C1.6146 5.4 1.61626 5.4 1.61793 5.4C1.61959 5.4 1.62125 5.4 1.62291 5.4C1.62457 5.4 1.62623 5.4 1.62789 5.4C1.62955 5.4 1.63121 5.4 1.63287 5.4C1.63452 5.4 1.63618 5.4 1.63783 5.4C1.63949 5.4 1.64114 5.4 1.64279 5.4C1.64445 5.4 1.6461 5.4 1.64775 5.4C1.6494 5.4 1.65105 5.4 1.65269 5.4C1.65434 5.4 1.65599 5.4 1.65763 5.4C1.65928 5.4 1.66092 5.4 1.66257 5.4C1.66421 5.4 1.66585 5.4 1.66749 5.4C1.66913 5.4 1.67077 5.4 1.67241 5.4C1.67405 5.4 1.67569 5.4 1.67732 5.4C1.67896 5.4 1.68059 5.4 1.68223 5.4C1.68386 5.4 1.68549 5.4 1.68713 5.4C1.68876 5.4 1.69039 5.4 1.69202 5.4C1.69365 5.4 1.69527 5.4 1.6969 5.4C1.69853 5.4 1.70015 5.4 1.70177 5.4C1.7034 5.4 1.70502 5.4 1.70664 5.4C1.70826 5.4 1.70988 5.4 1.7115 5.4C1.71312 5.4 1.71474 5.4 1.71636 5.4C1.71797 5.4 1.71959 5.4 1.7212 5.4C1.72281 5.4 1.72443 5.4 1.72604 5.4C1.72765 5.4 1.72926 5.4 1.73087 5.4C1.73248 5.4 1.73408 5.4 1.73569 5.4C1.73729 5.4 1.7389 5.4 1.7405 5.4C1.7421 5.4 1.74371 5.4 1.74531 5.4C1.74691 5.4 1.74851 5.4 1.7501 5.4C1.7517 5.4 1.7533 5.4 1.75489 5.4C1.75649 5.4 1.75808 5.4 1.75967 5.4C1.76126 5.4 1.76285 5.4 1.76444 5.4C1.76603 5.4 1.76762 5.4 1.76921 5.4C1.77079 5.4 1.77238 5.4 1.77396 5.4C1.77554 5.4 1.77713 5.4 1.77871 5.4C1.78029 5.4 1.78187 5.4 1.78344 5.4C1.78502 5.4 1.7866 5.4 1.78817 5.4C1.78975 5.4 1.79132 5.4 1.79289 5.4C1.79446 5.4 1.79604 5.4 1.7976 5.4C1.79917 5.4 1.80074 5.4 1.80231 5.4C1.80387 5.4 1.80544 5.4 1.807 5.4C1.80856 5.4 1.81012 5.4 1.81168 5.4C1.81324 5.4 1.8148 5.4 1.81636 5.4C1.81791 5.4 1.81947 5.4 1.82102 5.4C1.82257 5.4 1.82413 5.4 1.82568 5.4C1.82723 5.4 1.82878 5.4 1.83032 5.4C1.83187 5.4 1.83342 5.4 1.83496 5.4C1.8365 5.4 1.83805 5.4 1.83959 5.4C1.84113 5.4 1.84267 5.4 1.8442 5.4C1.84574 5.4 1.84728 5.4 1.84881 5.4C1.85035 5.4 1.85188 5.4 1.85341 5.4C1.85494 5.4 1.85647 5.4 1.858 5.4C1.85952 5.4 1.86105 5.4 1.86257 5.4C1.8641 5.4 1.86562 5.4 1.86714 5.4C1.86866 5.4 1.87018 5.4 1.8717 5.4C1.87322 5.4 1.87473 5.4 1.87625 5.4C1.87776 5.4 1.87927 5.4 1.88079 5.4C1.8823 5.4 1.8838 5.4 1.88531 5.4C1.88682 5.4 1.88832 5.4 1.88983 5.4C1.89133 5.4 1.89283 5.4 1.89433 5.4C1.89583 5.4 1.89733 5.4 1.89883 5.4C1.90033 5.4 1.90182 5.4 1.90331 5.4C1.90481 5.4 1.9063 5.4 1.90779 5.4C1.90928 5.4 1.91077 5.4 1.91225 5.4C1.91374 5.4 1.91522 5.4 1.9167 5.4C1.91819 5.4 1.91967 5.4 1.92115 5.4C1.92262 5.4 1.9241 5.4 1.92558 5.4C1.92705 5.4 1.92852 5.4 1.93 5.4C1.93147 5.4 1.93294 5.4 1.9344 5.4C1.93587 5.4 1.93734 5.4 1.9388 5.4C1.94026 5.4 1.94173 5.4 1.94319 5.4C1.94465 5.4 1.9461 5.4 1.94756 5.4C1.94902 5.4 1.95047 5.4 1.95192 5.4C1.95338 5.4 1.95483 5.4 1.95627 5.4C1.95772 5.4 1.95917 5.4 1.96061 5.4C1.96206 5.4 1.9635 5.4 1.96494 5.4C1.96638 5.4 1.96782 5.4 1.96926 5.4C1.9707 5.4 1.97213 5.4 1.97356 5.4C1.975 5.4 1.97643 5.4 1.97786 5.4C1.97928 5.4 1.98071 5.4 1.98214 5.4C1.98356 5.4 1.98498 5.4 1.9864 5.4C1.98783 5.4 1.98924 5.4 1.99066 5.4C1.99208 5.4 1.99349 5.4 1.9949 5.4C1.99632 5.4 1.99773 5.4 1.99914 5.4C2.00055 5.4 2.00195 5.4 2.00336 5.4C2.00476 5.4 2.00616 5.4 2.00756 5.4C2.00896 5.4 2.01036 5.4 2.01176 5.4C2.01315 5.4 2.01455 5.4 2.01594 5.4C2.01733 5.4 2.01872 5.4 2.02011 5.4C2.0215 5.4 2.02288 5.4 2.02427 5.4C2.02565 5.4 2.02703 5.4 2.02841 5.4C2.02979 5.4 2.03117 5.4 2.03254 5.4C2.03392 5.4 2.03529 5.4 2.03666 5.4C2.03803 5.4 2.0394 5.4 2.04076 5.4C2.04213 5.4 2.04349 5.4 2.04486 5.4C2.04622 5.4 2.04758 5.4 2.04894 5.4C2.05029 5.4 2.05165 5.4 2.053 5.4C2.05435 5.4 2.0557 5.4 2.05705 5.4C2.0584 5.4 2.05975 5.4 2.06109 5.4C2.06244 5.4 2.06378 5.4 2.06512 5.4C2.06646 5.4 2.06779 5.4 2.06913 5.4C2.07046 5.4 2.0718 5.4 2.07313 5.4C2.07446 5.4 2.07579 5.4 2.07711 5.4C2.07844 5.4 2.07976 5.4 2.08108 5.4C2.0824 5.4 2.08372 5.4 2.08504 5.4C2.08636 5.4 2.08767 5.4 2.08898 5.4C2.0903 5.4 2.09161 5.4 2.09291 5.4C2.09422 5.4 2.09553 5.4 2.09683 5.4C2.09813 5.4 2.09943 5.4 2.10073 5.4C2.10203 5.4 2.10332 5.4 2.10462 5.4C2.10591 5.4 2.1072 5.4 2.10849 5.4C2.10978 5.4 2.11106 5.4 2.11235 5.4C2.11363 5.4 2.11491 5.4 2.11619 5.4C2.11747 5.4 2.11875 5.4 2.12002 5.4C2.12129 5.4 2.12257 5.4 2.12383 5.4C2.1251 5.4 2.12637 5.4 2.12763 5.4C2.1289 5.4 2.13016 5.4 2.13142 5.4C2.13268 5.4 2.13394 5.4 2.13519 5.4C2.13645 5.4 2.1377 5.4 2.13895 5.4C2.1402 5.4 2.14144 5.4 2.14269 5.4C2.14393 5.4 2.14517 5.4 2.14641 5.4C2.14765 5.4 2.14889 5.4 2.15012 5.4C2.15136 5.4 2.15259 5.4 2.15382 5.4C2.15505 5.4 2.15628 5.4 2.1575 5.4C2.15872 5.4 2.15995 5.4 2.16116 5.4C2.16238 5.4 2.1636 5.4 2.16481 5.4C2.16603 5.4 2.16724 5.4 2.16845 5.4C2.16966 5.4 2.17086 5.4 2.17207 5.4C2.17327 5.4 2.17447 5.4 2.17567 5.4C2.17687 5.4 2.17806 5.4 2.17926 5.4C2.18045 5.4 2.18164 5.4 2.18283 5.4C2.18402 5.4 2.1852 5.4 2.18638 5.4C2.18757 5.4 2.18875 5.4 2.18992 5.4C2.1911 5.4 2.19228 5.4 2.19345 5.4C2.19462 5.4 2.19579 5.4 2.19696 5.4C2.19812 5.4 2.19929 5.4 2.20045 5.4C2.20161 5.4 2.20277 5.4 2.20392 5.4C2.20508 5.4 2.20623 5.4 2.20738 5.4C2.20853 5.4 2.20968 5.4 2.21083 5.4C2.21197 5.4 2.21311 5.4 2.21425 5.4C2.21539 5.4 2.21653 5.4 2.21766 5.4C2.2188 5.4 2.21993 5.4 2.22106 5.4C2.22218 5.4 2.22331 5.4 2.22443 5.4C2.22556 5.4 2.22668 5.4 2.22779 5.4C2.22891 5.4 2.23002 5.4 2.23114 5.4C2.23225 5.4 2.23336 5.4 2.23446 5.4C2.23557 5.4 2.23667 5.4 2.23777 5.4C2.23887 5.4 2.23997 5.4 2.24106 5.4C2.24216 5.4 2.24325 5.4 2.24434 5.4C2.24543 5.4 2.24651 5.4 2.2476 5.4C2.24868 5.4 2.24976 5.4 2.25084 5.4C2.25192 5.4 2.25299 5.4 2.25406 5.4C2.25513 5.4 2.2562 5.4 2.25727 5.4C2.25833 5.4 2.2594 5.4 2.26046 5.4C2.26152 5.4 2.26257 5.4 2.26363 5.4C2.26468 5.4 2.26573 5.4 2.26678 5.4C2.26783 5.4 2.26888 5.4 2.26992 5.4C2.27096 5.4 2.272 5.4 2.27304 5.4C2.27407 5.4 2.27511 5.4 2.27614 5.4C2.27717 5.4 2.2782 5.4 2.27922 5.4C2.28024 5.4 2.28127 5.4 2.28228 5.4C2.2833 5.4 2.28432 5.4 2.28533 5.4C2.28634 5.4 2.28735 5.4 2.28836 5.4C2.28937 5.4 2.29037 5.4 2.29137 5.4C2.29237 5.4 2.29337 5.4 2.29436 5.4C2.29536 5.4 2.29635 5.4 2.29733 5.4C2.29832 5.4 2.29931 5.4 2.30029 5.4C2.30127 5.4 2.30225 5.4 2.30323 5.4C2.3042 5.4 2.30518 5.4 2.30614 5.4C2.30711 5.4 2.30808 5.4 2.30904 5.4C2.31001 5.4 2.31097 5.4 2.31193 5.4C2.31288 5.4 2.31384 5.4 2.31479 5.4C2.31574 5.4 2.31669 5.4 2.31763 5.4C2.31857 5.4 2.31952 5.4 2.32045 5.4C2.32139 5.4 2.32233 5.4 2.32326 5.4C2.32419 5.4 2.32512 5.4 2.32605 5.4C2.32697 5.4 2.32789 5.4 2.32881 5.4C2.32973 5.4 2.33065 5.4 2.33156 5.4C2.33247 5.4 2.33338 5.4 2.33429 5.4C2.33519 5.4 2.3361 5.4 2.337 5.4C2.3379 5.4 2.33879 5.4 2.33969 5.4C2.34058 5.4 2.34147 5.4 2.34236 5.4C2.34324 5.4 2.34413 5.4 2.34501 5.4C2.34589 5.4 2.34676 5.4 2.34764 5.4C2.34851 5.4 2.34938 5.4 2.35025 5.4C2.35112 5.4 2.35198 5.4 2.35284 5.4C2.3537 5.4 2.35456 5.4 2.35541 5.4C2.35627 5.4 2.35712 5.4 2.35796 5.4C2.35881 5.4 2.35965 5.4 2.36049 5.4C2.36133 5.4 2.36217 5.4 2.363 5.4C2.36384 5.4 2.36467 5.4 2.3655 5.4C2.36632 5.4 2.36715 5.4 2.36797 5.4C2.36879 5.4 2.3696 5.4 2.37042 5.4C2.37123 5.4 2.37204 5.4 2.37285 5.4C2.37365 5.4 2.37446 5.4 2.37526 5.4C2.37606 5.4 2.37685 5.4 2.37764 5.4C2.37844 5.4 2.37923 5.4 2.38001 5.4C2.3808 5.4 2.38158 5.4 2.38236 5.4C2.38314 5.4 2.38391 5.4 2.38469 5.4C2.38546 5.4 2.38623 5.4 2.38699 5.4C2.38776 5.4 2.38852 5.4 2.38928 5.4C2.39004 5.4 2.39079 5.4 2.39154 5.4C2.39229 5.4 2.39304 5.4 2.39378 5.4C2.39453 5.4 2.39527 5.4 2.39601 5.4C2.39674 5.4 2.39748 5.4 2.39821 5.4C2.39894 5.4 2.39966 5.4 2.40039 5.4C2.40111 5.4 2.40183 5.4 2.40254 5.4C2.40326 5.4 2.40397 5.4 2.40468 5.4C2.40539 5.4 2.40609 5.4 2.40679 5.4C2.4075 5.4 2.40819 5.4 2.40889 5.4C2.40958 5.4 2.41027 5.4 2.41096 5.4C2.41165 5.4 2.41233 5.4 2.41301 5.4C2.41369 5.4 2.41436 5.4 2.41504 5.4C2.41571 5.4 2.41638 5.4 2.41704 5.4C2.41771 5.4 2.41837 5.4 2.41903 5.4C2.41968 5.4 2.42034 5.4 2.42099 5.4C2.42164 5.4 2.42228 5.4 2.42293 5.4C2.42357 5.4 2.42421 5.4 2.42484 5.4C2.42548 5.4 2.42611 5.4 2.42674 5.4C2.42737 5.4 2.42799 5.4 2.42861 5.4C2.42923 5.4 2.42985 5.4 2.43046 5.4C2.43108 5.4 2.43169 5.4 2.43229 5.4C2.4329 5.4 2.4335 5.4 2.4341 5.4C2.4347 5.4 2.43529 5.4 2.43588 5.4C2.43647 5.4 2.43706 5.4 2.43764 5.4C2.43822 5.4 2.4388 5.4 2.43938 5.4C2.43995 5.4 2.44052 5.4 2.44109 5.4C2.44166 5.4 2.44222 5.4 2.44278 5.4C2.44334 5.4 2.4439 5.4 2.44445 5.4C2.445 5.4 2.44555 5.4 2.4461 5.4C2.44664 5.4 2.44718 5.4 2.44772 5.4C2.44826 5.4 2.44879 5.4 2.44932 5.4C2.44985 5.4 2.45037 5.4 2.45089 5.4C2.45142 5.4 2.45193 5.4 2.45245 5.4C2.45296 5.4 2.45347 5.4 2.45398 5.4C2.45448 5.4 2.45498 5.4 2.45548 5.4C2.45598 5.4 2.45647 5.4 2.45696 5.4C2.45745 5.4 2.45794 5.4 2.45842 5.4C2.4589 5.4 2.45938 5.4 2.45986 5.4C2.46033 5.4 2.4608 5.4 2.46127 5.4C2.46173 5.4 2.46219 5.4 2.46265 5.4C2.46311 5.4 2.46357 5.4 2.46402 5.4C2.46447 5.4 2.46491 5.4 2.46535 5.4C2.4658 5.4 2.46623 5.4 2.46667 5.4C2.4671 5.4 2.46753 5.4 2.46796 5.4C2.46838 5.4 2.46881 5.4 2.46922 5.4C2.46964 5.4 2.47006 5.4 2.47047 5.4C2.47088 5.4 2.47128 5.4 2.47168 5.4C2.47209 5.4 2.47248 5.4 2.47288 5.4C2.47327 5.4 2.47366 5.4 2.47404 5.4C2.47443 5.4 2.47481 5.4 2.47519 5.4C2.47557 5.4 2.47594 5.4 2.47631 5.4C2.47668 5.4 2.47704 5.4 2.4774 5.4C2.47776 5.4 2.47812 5.4 2.47847 5.4C2.47882 5.4 2.47917 5.4 2.47951 5.4C2.47986 5.4 2.4802 5.4 2.48053 5.4C2.48087 5.4 2.4812 5.4 2.48153 5.4C2.48186 5.4 2.48218 5.4 2.4825 5.4C2.48282 5.4 2.48313 5.4 2.48344 5.4C2.48375 5.4 2.48406 5.4 2.48436 5.4C2.48466 5.4 2.48496 5.4 2.48525 5.4C2.48555 5.4 2.48583 5.4 2.48612 5.4C2.4864 5.4 2.48669 5.4 2.48696 5.4C2.48724 5.4 2.48751 5.4 2.48778 5.4C2.48805 5.4 2.48831 5.4 2.48857 5.4C2.48883 5.4 2.48908 5.4 2.48933 5.4C2.48959 5.4 2.48983 5.4 2.49007 5.4C2.49032 5.4 2.49055 5.4 2.49079 5.4C2.49102 5.4 2.49125 5.4 2.49147 5.4C2.4917 5.4 2.49192 5.4 2.49214 5.4C2.49235 5.4 2.49256 5.4 2.49277 5.4C2.49298 5.4 2.49318 5.4 2.49338 5.4C2.49358 5.4 2.49377 5.4 2.49396 5.4C2.49415 5.4 2.49434 5.4 2.49452 5.4C2.4947 5.4 2.49488 5.4 2.49505 5.4C2.49522 5.4 2.49539 5.4 2.49555 5.4C2.49572 5.4 2.49587 5.4 2.49603 5.4C2.49618 5.4 2.49633 5.4 2.49648 5.4C2.49663 5.4 2.49677 5.4 2.4969 5.4C2.49704 5.4 2.49717 5.4 2.4973 5.4C2.49743 5.4 2.49755 5.4 2.49767 5.4C2.49779 5.4 2.4979 5.4 2.49801 5.4C2.49812 5.4 2.49823 5.4 2.49833 5.4C2.49843 5.4 2.49853 5.4 2.49862 5.4C2.49871 5.4 2.4988 5.4 2.49888 5.4C2.49896 5.4 2.49904 5.4 2.49911 5.4C2.49919 5.4 2.49926 5.4 2.49932 5.4C2.49939 5.4 2.49945 5.4 2.4995 5.4C2.49956 5.4 2.49961 5.4 2.49965 5.4C2.4997 5.4 2.49974 5.4 2.49978 5.4C2.49981 5.4 2.49985 5.4 2.49987 5.4C2.4999 5.4 2.49993 5.4 2.49994 5.4C2.49996 5.4 2.49998 5.4 2.49999 5.4C2.5 5.4 2.5 5.4 2.5 4.9C2.5 4.4 2.5 4.4 2.49999 4.4C2.49998 4.4 2.49996 4.4 2.49994 4.4C2.49993 4.4 2.4999 4.4 2.49987 4.4C2.49985 4.4 2.49981 4.4 2.49978 4.4C2.49974 4.4 2.4997 4.4 2.49965 4.4C2.49961 4.4 2.49956 4.4 2.4995 4.4C2.49945 4.4 2.49939 4.4 2.49932 4.4C2.49926 4.4 2.49919 4.4 2.49911 4.4C2.49904 4.4 2.49896 4.4 2.49888 4.4C2.4988 4.4 2.49871 4.4 2.49862 4.4C2.49853 4.4 2.49843 4.4 2.49833 4.4C2.49823 4.4 2.49812 4.4 2.49801 4.4C2.4979 4.4 2.49779 4.4 2.49767 4.4C2.49755 4.4 2.49743 4.4 2.4973 4.4C2.49717 4.4 2.49704 4.4 2.4969 4.4C2.49677 4.4 2.49663 4.4 2.49648 4.4C2.49633 4.4 2.49618 4.4 2.49603 4.4C2.49587 4.4 2.49572 4.4 2.49555 4.4C2.49539 4.4 2.49522 4.4 2.49505 4.4C2.49488 4.4 2.4947 4.4 2.49452 4.4C2.49434 4.4 2.49415 4.4 2.49396 4.4C2.49377 4.4 2.49358 4.4 2.49338 4.4C2.49318 4.4 2.49298 4.4 2.49277 4.4C2.49256 4.4 2.49235 4.4 2.49214 4.4C2.49192 4.4 2.4917 4.4 2.49147 4.4C2.49125 4.4 2.49102 4.4 2.49079 4.4C2.49055 4.4 2.49032 4.4 2.49007 4.4C2.48983 4.4 2.48959 4.4 2.48933 4.4C2.48908 4.4 2.48883 4.4 2.48857 4.4C2.48831 4.4 2.48805 4.4 2.48778 4.4C2.48751 4.4 2.48724 4.4 2.48696 4.4C2.48669 4.4 2.4864 4.4 2.48612 4.4C2.48583 4.4 2.48555 4.4 2.48525 4.4C2.48496 4.4 2.48466 4.4 2.48436 4.4C2.48406 4.4 2.48375 4.4 2.48344 4.4C2.48313 4.4 2.48282 4.4 2.4825 4.4C2.48218 4.4 2.48186 4.4 2.48153 4.4C2.4812 4.4 2.48087 4.4 2.48053 4.4C2.4802 4.4 2.47986 4.4 2.47951 4.4C2.47917 4.4 2.47882 4.4 2.47847 4.4C2.47812 4.4 2.47776 4.4 2.4774 4.4C2.47704 4.4 2.47668 4.4 2.47631 4.4C2.47594 4.4 2.47557 4.4 2.47519 4.4C2.47481 4.4 2.47443 4.4 2.47404 4.4C2.47366 4.4 2.47327 4.4 2.47288 4.4C2.47248 4.4 2.47209 4.4 2.47168 4.4C2.47128 4.4 2.47088 4.4 2.47047 4.4C2.47006 4.4 2.46964 4.4 2.46922 4.4C2.46881 4.4 2.46838 4.4 2.46796 4.4C2.46753 4.4 2.4671 4.4 2.46667 4.4C2.46623 4.4 2.4658 4.4 2.46535 4.4C2.46491 4.4 2.46447 4.4 2.46402 4.4C2.46357 4.4 2.46311 4.4 2.46265 4.4C2.46219 4.4 2.46173 4.4 2.46127 4.4C2.4608 4.4 2.46033 4.4 2.45986 4.4C2.45938 4.4 2.4589 4.4 2.45842 4.4C2.45794 4.4 2.45745 4.4 2.45696 4.4C2.45647 4.4 2.45598 4.4 2.45548 4.4C2.45498 4.4 2.45448 4.4 2.45398 4.4C2.45347 4.4 2.45296 4.4 2.45245 4.4C2.45193 4.4 2.45142 4.4 2.45089 4.4C2.45037 4.4 2.44985 4.4 2.44932 4.4C2.44879 4.4 2.44826 4.4 2.44772 4.4C2.44718 4.4 2.44664 4.4 2.4461 4.4C2.44555 4.4 2.445 4.4 2.44445 4.4C2.4439 4.4 2.44334 4.4 2.44278 4.4C2.44222 4.4 2.44166 4.4 2.44109 4.4C2.44052 4.4 2.43995 4.4 2.43938 4.4C2.4388 4.4 2.43822 4.4 2.43764 4.4C2.43706 4.4 2.43647 4.4 2.43588 4.4C2.43529 4.4 2.4347 4.4 2.4341 4.4C2.4335 4.4 2.4329 4.4 2.43229 4.4C2.43169 4.4 2.43108 4.4 2.43046 4.4C2.42985 4.4 2.42923 4.4 2.42861 4.4C2.42799 4.4 2.42737 4.4 2.42674 4.4C2.42611 4.4 2.42548 4.4 2.42484 4.4C2.42421 4.4 2.42357 4.4 2.42293 4.4C2.42228 4.4 2.42164 4.4 2.42099 4.4C2.42034 4.4 2.41968 4.4 2.41903 4.4C2.41837 4.4 2.41771 4.4 2.41704 4.4C2.41638 4.4 2.41571 4.4 2.41504 4.4C2.41436 4.4 2.41369 4.4 2.41301 4.4C2.41233 4.4 2.41165 4.4 2.41096 4.4C2.41027 4.4 2.40958 4.4 2.40889 4.4C2.40819 4.4 2.4075 4.4 2.40679 4.4C2.40609 4.4 2.40539 4.4 2.40468 4.4C2.40397 4.4 2.40326 4.4 2.40254 4.4C2.40183 4.4 2.40111 4.4 2.40039 4.4C2.39966 4.4 2.39894 4.4 2.39821 4.4C2.39748 4.4 2.39674 4.4 2.39601 4.4C2.39527 4.4 2.39453 4.4 2.39378 4.4C2.39304 4.4 2.39229 4.4 2.39154 4.4C2.39079 4.4 2.39004 4.4 2.38928 4.4C2.38852 4.4 2.38776 4.4 2.38699 4.4C2.38623 4.4 2.38546 4.4 2.38469 4.4C2.38391 4.4 2.38314 4.4 2.38236 4.4C2.38158 4.4 2.3808 4.4 2.38001 4.4C2.37923 4.4 2.37844 4.4 2.37764 4.4C2.37685 4.4 2.37606 4.4 2.37526 4.4C2.37446 4.4 2.37365 4.4 2.37285 4.4C2.37204 4.4 2.37123 4.4 2.37042 4.4C2.3696 4.4 2.36879 4.4 2.36797 4.4C2.36715 4.4 2.36632 4.4 2.3655 4.4C2.36467 4.4 2.36384 4.4 2.363 4.4C2.36217 4.4 2.36133 4.4 2.36049 4.4C2.35965 4.4 2.35881 4.4 2.35796 4.4C2.35712 4.4 2.35627 4.4 2.35541 4.4C2.35456 4.4 2.3537 4.4 2.35284 4.4C2.35198 4.4 2.35112 4.4 2.35025 4.4C2.34938 4.4 2.34851 4.4 2.34764 4.4C2.34676 4.4 2.34589 4.4 2.34501 4.4C2.34413 4.4 2.34324 4.4 2.34236 4.4C2.34147 4.4 2.34058 4.4 2.33969 4.4C2.33879 4.4 2.3379 4.4 2.337 4.4C2.3361 4.4 2.33519 4.4 2.33429 4.4C2.33338 4.4 2.33247 4.4 2.33156 4.4C2.33065 4.4 2.32973 4.4 2.32881 4.4C2.32789 4.4 2.32697 4.4 2.32605 4.4C2.32512 4.4 2.32419 4.4 2.32326 4.4C2.32233 4.4 2.32139 4.4 2.32045 4.4C2.31952 4.4 2.31857 4.4 2.31763 4.4C2.31669 4.4 2.31574 4.4 2.31479 4.4C2.31384 4.4 2.31288 4.4 2.31193 4.4C2.31097 4.4 2.31001 4.4 2.30904 4.4C2.30808 4.4 2.30711 4.4 2.30614 4.4C2.30518 4.4 2.3042 4.4 2.30323 4.4C2.30225 4.4 2.30127 4.4 2.30029 4.4C2.29931 4.4 2.29832 4.4 2.29733 4.4C2.29635 4.4 2.29536 4.4 2.29436 4.4C2.29337 4.4 2.29237 4.4 2.29137 4.4C2.29037 4.4 2.28937 4.4 2.28836 4.4C2.28735 4.4 2.28634 4.4 2.28533 4.4C2.28432 4.4 2.2833 4.4 2.28228 4.4C2.28127 4.4 2.28024 4.4 2.27922 4.4C2.2782 4.4 2.27717 4.4 2.27614 4.4C2.27511 4.4 2.27407 4.4 2.27304 4.4C2.272 4.4 2.27096 4.4 2.26992 4.4C2.26888 4.4 2.26783 4.4 2.26678 4.4C2.26573 4.4 2.26468 4.4 2.26363 4.4C2.26257 4.4 2.26152 4.4 2.26046 4.4C2.2594 4.4 2.25833 4.4 2.25727 4.4C2.2562 4.4 2.25513 4.4 2.25406 4.4C2.25299 4.4 2.25192 4.4 2.25084 4.4C2.24976 4.4 2.24868 4.4 2.2476 4.4C2.24651 4.4 2.24543 4.4 2.24434 4.4C2.24325 4.4 2.24216 4.4 2.24106 4.4C2.23997 4.4 2.23887 4.4 2.23777 4.4C2.23667 4.4 2.23557 4.4 2.23446 4.4C2.23336 4.4 2.23225 4.4 2.23114 4.4C2.23002 4.4 2.22891 4.4 2.22779 4.4C2.22668 4.4 2.22556 4.4 2.22443 4.4C2.22331 4.4 2.22218 4.4 2.22106 4.4C2.21993 4.4 2.2188 4.4 2.21766 4.4C2.21653 4.4 2.21539 4.4 2.21425 4.4C2.21311 4.4 2.21197 4.4 2.21083 4.4C2.20968 4.4 2.20853 4.4 2.20738 4.4C2.20623 4.4 2.20508 4.4 2.20392 4.4C2.20277 4.4 2.20161 4.4 2.20045 4.4C2.19929 4.4 2.19812 4.4 2.19696 4.4C2.19579 4.4 2.19462 4.4 2.19345 4.4C2.19228 4.4 2.1911 4.4 2.18992 4.4C2.18875 4.4 2.18757 4.4 2.18638 4.4C2.1852 4.4 2.18402 4.4 2.18283 4.4C2.18164 4.4 2.18045 4.4 2.17926 4.4C2.17806 4.4 2.17687 4.4 2.17567 4.4C2.17447 4.4 2.17327 4.4 2.17207 4.4C2.17086 4.4 2.16966 4.4 2.16845 4.4C2.16724 4.4 2.16603 4.4 2.16481 4.4C2.1636 4.4 2.16238 4.4 2.16116 4.4C2.15995 4.4 2.15872 4.4 2.1575 4.4C2.15628 4.4 2.15505 4.4 2.15382 4.4C2.15259 4.4 2.15136 4.4 2.15012 4.4C2.14889 4.4 2.14765 4.4 2.14641 4.4C2.14517 4.4 2.14393 4.4 2.14269 4.4C2.14144 4.4 2.1402 4.4 2.13895 4.4C2.1377 4.4 2.13645 4.4 2.13519 4.4C2.13394 4.4 2.13268 4.4 2.13142 4.4C2.13016 4.4 2.1289 4.4 2.12763 4.4C2.12637 4.4 2.1251 4.4 2.12383 4.4C2.12257 4.4 2.12129 4.4 2.12002 4.4C2.11875 4.4 2.11747 4.4 2.11619 4.4C2.11491 4.4 2.11363 4.4 2.11235 4.4C2.11106 4.4 2.10978 4.4 2.10849 4.4C2.1072 4.4 2.10591 4.4 2.10462 4.4C2.10332 4.4 2.10203 4.4 2.10073 4.4C2.09943 4.4 2.09813 4.4 2.09683 4.4C2.09553 4.4 2.09422 4.4 2.09291 4.4C2.09161 4.4 2.0903 4.4 2.08898 4.4C2.08767 4.4 2.08636 4.4 2.08504 4.4C2.08372 4.4 2.0824 4.4 2.08108 4.4C2.07976 4.4 2.07844 4.4 2.07711 4.4C2.07579 4.4 2.07446 4.4 2.07313 4.4C2.0718 4.4 2.07046 4.4 2.06913 4.4C2.06779 4.4 2.06646 4.4 2.06512 4.4C2.06378 4.4 2.06244 4.4 2.06109 4.4C2.05975 4.4 2.0584 4.4 2.05705 4.4C2.0557 4.4 2.05435 4.4 2.053 4.4C2.05165 4.4 2.05029 4.4 2.04894 4.4C2.04758 4.4 2.04622 4.4 2.04486 4.4C2.04349 4.4 2.04213 4.4 2.04076 4.4C2.0394 4.4 2.03803 4.4 2.03666 4.4C2.03529 4.4 2.03392 4.4 2.03254 4.4C2.03117 4.4 2.02979 4.4 2.02841 4.4C2.02703 4.4 2.02565 4.4 2.02427 4.4C2.02288 4.4 2.0215 4.4 2.02011 4.4C2.01872 4.4 2.01733 4.4 2.01594 4.4C2.01455 4.4 2.01315 4.4 2.01176 4.4C2.01036 4.4 2.00896 4.4 2.00756 4.4C2.00616 4.4 2.00476 4.4 2.00336 4.4C2.00195 4.4 2.00055 4.4 1.99914 4.4C1.99773 4.4 1.99632 4.4 1.9949 4.4C1.99349 4.4 1.99208 4.4 1.99066 4.4C1.98924 4.4 1.98783 4.4 1.9864 4.4C1.98498 4.4 1.98356 4.4 1.98214 4.4C1.98071 4.4 1.97928 4.4 1.97786 4.4C1.97643 4.4 1.975 4.4 1.97356 4.4C1.97213 4.4 1.9707 4.4 1.96926 4.4C1.96782 4.4 1.96638 4.4 1.96494 4.4C1.9635 4.4 1.96206 4.4 1.96061 4.4C1.95917 4.4 1.95772 4.4 1.95627 4.4C1.95483 4.4 1.95338 4.4 1.95192 4.4C1.95047 4.4 1.94902 4.4 1.94756 4.4C1.9461 4.4 1.94465 4.4 1.94319 4.4C1.94173 4.4 1.94026 4.4 1.9388 4.4C1.93734 4.4 1.93587 4.4 1.9344 4.4C1.93294 4.4 1.93147 4.4 1.93 4.4C1.92852 4.4 1.92705 4.4 1.92558 4.4C1.9241 4.4 1.92262 4.4 1.92115 4.4C1.91967 4.4 1.91819 4.4 1.9167 4.4C1.91522 4.4 1.91374 4.4 1.91225 4.4C1.91077 4.4 1.90928 4.4 1.90779 4.4C1.9063 4.4 1.90481 4.4 1.90331 4.4C1.90182 4.4 1.90033 4.4 1.89883 4.4C1.89733 4.4 1.89583 4.4 1.89433 4.4C1.89283 4.4 1.89133 4.4 1.88983 4.4C1.88832 4.4 1.88682 4.4 1.88531 4.4C1.8838 4.4 1.8823 4.4 1.88079 4.4C1.87927 4.4 1.87776 4.4 1.87625 4.4C1.87473 4.4 1.87322 4.4 1.8717 4.4C1.87018 4.4 1.86866 4.4 1.86714 4.4C1.86562 4.4 1.8641 4.4 1.86257 4.4C1.86105 4.4 1.85952 4.4 1.858 4.4C1.85647 4.4 1.85494 4.4 1.85341 4.4C1.85188 4.4 1.85035 4.4 1.84881 4.4C1.84728 4.4 1.84574 4.4 1.8442 4.4C1.84267 4.4 1.84113 4.4 1.83959 4.4C1.83805 4.4 1.8365 4.4 1.83496 4.4C1.83342 4.4 1.83187 4.4 1.83032 4.4C1.82878 4.4 1.82723 4.4 1.82568 4.4C1.82413 4.4 1.82257 4.4 1.82102 4.4C1.81947 4.4 1.81791 4.4 1.81636 4.4C1.8148 4.4 1.81324 4.4 1.81168 4.4C1.81012 4.4 1.80856 4.4 1.807 4.4C1.80544 4.4 1.80387 4.4 1.80231 4.4C1.80074 4.4 1.79917 4.4 1.7976 4.4C1.79604 4.4 1.79446 4.4 1.79289 4.4C1.79132 4.4 1.78975 4.4 1.78817 4.4C1.7866 4.4 1.78502 4.4 1.78344 4.4C1.78187 4.4 1.78029 4.4 1.77871 4.4C1.77713 4.4 1.77554 4.4 1.77396 4.4C1.77238 4.4 1.77079 4.4 1.76921 4.4C1.76762 4.4 1.76603 4.4 1.76444 4.4C1.76285 4.4 1.76126 4.4 1.75967 4.4C1.75808 4.4 1.75649 4.4 1.75489 4.4C1.7533 4.4 1.7517 4.4 1.7501 4.4C1.74851 4.4 1.74691 4.4 1.74531 4.4C1.74371 4.4 1.7421 4.4 1.7405 4.4C1.7389 4.4 1.73729 4.4 1.73569 4.4C1.73408 4.4 1.73248 4.4 1.73087 4.4C1.72926 4.4 1.72765 4.4 1.72604 4.4C1.72443 4.4 1.72281 4.4 1.7212 4.4C1.71959 4.4 1.71797 4.4 1.71636 4.4C1.71474 4.4 1.71312 4.4 1.7115 4.4C1.70988 4.4 1.70826 4.4 1.70664 4.4C1.70502 4.4 1.7034 4.4 1.70177 4.4C1.70015 4.4 1.69853 4.4 1.6969 4.4C1.69527 4.4 1.69365 4.4 1.69202 4.4C1.69039 4.4 1.68876 4.4 1.68713 4.4C1.68549 4.4 1.68386 4.4 1.68223 4.4C1.68059 4.4 1.67896 4.4 1.67732 4.4C1.67569 4.4 1.67405 4.4 1.67241 4.4C1.67077 4.4 1.66913 4.4 1.66749 4.4C1.66585 4.4 1.66421 4.4 1.66257 4.4C1.66092 4.4 1.65928 4.4 1.65763 4.4C1.65599 4.4 1.65434 4.4 1.65269 4.4C1.65105 4.4 1.6494 4.4 1.64775 4.4C1.6461 4.4 1.64445 4.4 1.64279 4.4C1.64114 4.4 1.63949 4.4 1.63783 4.4C1.63618 4.4 1.63452 4.4 1.63287 4.4C1.63121 4.4 1.62955 4.4 1.62789 4.4C1.62623 4.4 1.62457 4.4 1.62291 4.4C1.62125 4.4 1.61959 4.4 1.61793 4.4C1.61626 4.4 1.6146 4.4 1.61294 4.4C1.61127 4.4 1.6096 4.4 1.60794 4.4C1.60627 4.4 1.6046 4.4 1.60293 4.4C1.60126 4.4 1.59959 4.4 1.59792 4.4C1.59625 4.4 1.59458 4.4 1.59291 4.4C1.59123 4.4 1.58956 4.4 1.58788 4.4C1.58621 4.4 1.58453 4.4 1.58285 4.4C1.58118 4.4 1.5795 4.4 1.57782 4.4C1.57614 4.4 1.57446 4.4 1.57278 4.4C1.5711 4.4 1.56942 4.4 1.56774 4.4C1.56605 4.4 1.56437 4.4 1.56269 4.4C1.561 4.4 1.55932 4.4 1.55763 4.4C1.55594 4.4 1.55426 4.4 1.55257 4.4C1.55088 4.4 1.54919 4.4 1.5475 4.4C1.54581 4.4 1.54412 4.4 1.54243 4.4C1.54074 4.4 1.53904 4.4 1.53735 4.4C1.53566 4.4 1.53396 4.4 1.53227 4.4C1.53057 4.4 1.52888 4.4 1.52718 4.4C1.52548 4.4 1.52379 4.4 1.52209 4.4C1.52039 4.4 1.51869 4.4 1.51699 4.4C1.51529 4.4 1.51359 4.4 1.51189 4.4C1.51019 4.4 1.50849 4.4 1.50678 4.4C1.50508 4.4 1.50338 4.4 1.50167 4.4C1.49997 4.4 1.49826 4.4 1.49655 4.4C1.49485 4.4 1.49314 4.4 1.49143 4.4C1.48973 4.4 1.48802 4.4 1.48631 4.4C1.4846 4.4 1.48289 4.4 1.48118 4.4C1.47947 4.4 1.47776 4.4 1.47605 4.4C1.47433 4.4 1.47262 4.4 1.47091 4.4C1.4692 4.4 1.46748 4.4 1.46577 4.4C1.46405 4.4 1.46234 4.4 1.46062 4.4C1.45891 4.4 1.45719 4.4 1.45547 4.4C1.45375 4.4 1.45204 4.4 1.45032 4.4C1.4486 4.4 1.44688 4.4 1.44516 4.4C1.44344 4.4 1.44172 4.4 1.44 4.4C1.43828 4.4 1.43656 4.4 1.43483 4.4C1.43311 4.4 1.43139 4.4 1.42967 4.4C1.42794 4.4 1.42622 4.4 1.42449 4.4C1.42277 4.4 1.42104 4.4 1.41932 4.4C1.41759 4.4 1.41587 4.4 1.41414 4.4C1.41241 4.4 1.41068 4.4 1.40896 4.4C1.40723 4.4 1.4055 4.4 1.40377 4.4C1.40204 4.4 1.40031 4.4 1.39858 4.4C1.39685 4.4 1.39512 4.4 1.39339 4.4C1.39166 4.4 1.38993 4.4 1.3882 4.4C1.38646 4.4 1.38473 4.4 1.383 4.4C1.38126 4.4 1.37953 4.4 1.3778 4.4C1.37606 4.4 1.37433 4.4 1.37259 4.4C1.37086 4.4 1.36912 4.4 1.36739 4.4C1.36565 4.4 1.36392 4.4 1.36218 4.4C1.36044 4.4 1.3587 4.4 1.35697 4.4C1.35523 4.4 1.35349 4.4 1.35175 4.4C1.35001 4.4 1.34828 4.4 1.34654 4.4C1.3448 4.4 1.34306 4.4 1.34132 4.4C1.33958 4.4 1.33784 4.4 1.3361 4.4C1.33436 4.4 1.33262 4.4 1.33087 4.4C1.32913 4.4 1.32739 4.4 1.32565 4.4C1.32391 4.4 1.32216 4.4 1.32042 4.4C1.31868 4.4 1.31694 4.4 1.31519 4.4C1.31345 4.4 1.31171 4.4 1.30996 4.4C1.30822 4.4 1.30647 4.4 1.30473 4.4C1.30298 4.4 1.30124 4.4 1.29949 4.4C1.29775 4.4 1.296 4.4 1.29426 4.4C1.29251 4.4 1.29077 4.4 1.28902 4.4C1.28727 4.4 1.28553 4.4 1.28378 4.4C1.28203 4.4 1.28029 4.4 1.27854 4.4C1.27679 4.4 1.27504 4.4 1.2733 4.4C1.27155 4.4 1.2698 4.4 1.26805 4.4C1.26631 4.4 1.26456 4.4 1.26281 4.4C1.26106 4.4 1.25931 4.4 1.25756 4.4C1.25581 4.4 1.25406 4.4 1.25232 4.4C1.25057 4.4 1.24882 4.4 1.24707 4.4C1.24532 4.4 1.24357 4.4 1.24182 4.4C1.24007 4.4 1.23832 4.4 1.23657 4.4C1.23482 4.4 1.23307 4.4 1.23132 4.4C1.22957 4.4 1.22782 4.4 1.22607 4.4C1.22431 4.4 1.22256 4.4 1.22081 4.4C1.21906 4.4 1.21731 4.4 1.21556 4.4C1.21381 4.4 1.21206 4.4 1.21031 4.4C1.20856 4.4 1.20681 4.4 1.20505 4.4C1.2033 4.4 1.20155 4.4 1.1998 4.4C1.19805 4.4 1.1963 4.4 1.19455 4.4C1.19279 4.4 1.19104 4.4 1.18929 4.4C1.18754 4.4 1.18579 4.4 1.18404 4.4C1.18229 4.4 1.18053 4.4 1.17878 4.4C1.17703 4.4 1.17528 4.4 1.17353 4.4C1.17178 4.4 1.17002 4.4 1.16827 4.4C1.16652 4.4 1.16477 4.4 1.16302 4.4C1.16127 4.4 1.15952 4.4 1.15776 4.4C1.15601 4.4 1.15426 4.4 1.15251 4.4C1.15076 4.4 1.14901 4.4 1.14726 4.4C1.14551 4.4 1.14376 4.4 1.142 4.4C1.14025 4.4 1.1385 4.4 1.13675 4.4C1.135 4.4 1.13325 4.4 1.1315 4.4C1.12975 4.4 1.128 4.4 1.12625 4.4C1.1245 4.4 1.12275 4.4 1.121 4.4C1.11925 4.4 1.1175 4.4 1.11575 4.4C1.114 4.4 1.11225 4.4 1.1105 4.4C1.10875 4.4 1.107 4.4 1.10525 4.4C1.10351 4.4 1.10176 4.4 1.10001 4.4C1.09826 4.4 1.09651 4.4 1.09476 4.4C1.09301 4.4 1.09127 4.4 1.08952 4.4C1.08777 4.4 1.08602 4.4 1.08428 4.4C1.08253 4.4 1.08078 4.4 1.07903 4.4C1.07729 4.4 1.07554 4.4 1.07379 4.4C1.07205 4.4 1.0703 4.4 1.06856 4.4C1.06681 4.4 1.06506 4.4 1.06332 4.4C1.06157 4.4 1.05983 4.4 1.05808 4.4C1.05634 4.4 1.05459 4.4 1.05285 4.4C1.05111 4.4 1.04936 4.4 1.04762 4.4C1.04587 4.4 1.04413 4.4 1.04239 4.4C1.04064 4.4 1.0389 4.4 1.03716 4.4C1.03542 4.4 1.03368 4.4 1.03193 4.4C1.03019 4.4 1.02845 4.4 1.02671 4.4C1.02497 4.4 1.02323 4.4 1.02149 4.4C1.01975 4.4 1.01801 4.4 1.01627 4.4C1.01453 4.4 1.01279 4.4 1.01105 4.4C1.00931 4.4 1.00757 4.4 1.00584 4.4C1.0041 4.4 1.00236 4.4 1.00062 4.4C0.998888 4.4 0.997151 4.4 0.995415 4.4C0.993679 4.4 0.991943 4.4 0.990208 4.4C0.988473 4.4 0.986738 4.4 0.985004 4.4C0.983269 4.4 0.981535 4.4 0.979802 4.4C0.978069 4.4 0.976336 4.4 0.974603 4.4C0.972871 4.4 0.971139 4.4 0.969407 4.4C0.967676 4.4 0.965945 4.4 0.964214 4.4C0.962484 4.4 0.960754 4.4 0.959025 4.4C0.957295 4.4 0.955566 4.4 0.953838 4.4C0.95211 4.4 0.950382 4.4 0.948654 4.4C0.946927 4.4 0.9452 4.4 0.943474 4.4C0.941748 4.4 0.940022 4.4 0.938297 4.4C0.936572 4.4 0.934848 4.4 0.933124 4.4C0.9314 4.4 0.929677 4.4 0.927954 4.4C0.926231 4.4 0.924509 4.4 0.922788 4.4C0.921066 4.4 0.919345 4.4 0.917625 4.4C0.915905 4.4 0.914185 4.4 0.912466 4.4C0.910747 4.4 0.909029 4.4 0.907311 4.4C0.905593 4.4 0.903876 4.4 0.90216 4.4C0.900443 4.4 0.898728 4.4 0.897012 4.4C0.895297 4.4 0.893583 4.4 0.891869 4.4C0.890155 4.4 0.888442 4.4 0.88673 4.4C0.885018 4.4 0.883306 4.4 0.881595 4.4C0.879884 4.4 0.878174 4.4 0.876464 4.4C0.874755 4.4 0.873046 4.4 0.871338 4.4C0.86963 4.4 0.867922 4.4 0.866216 4.4C0.864509 4.4 0.862803 4.4 0.861098 4.4C0.859393 4.4 0.857688 4.4 0.855985 4.4C0.854281 4.4 0.852578 4.4 0.850876 4.4C0.849174 4.4 0.847473 4.4 0.845773 4.4C0.844072 4.4 0.842373 4.4 0.840674 4.4C0.838975 4.4 0.837277 4.4 0.835579 4.4C0.833882 4.4 0.832186 4.4 0.83049 4.4C0.828795 4.4 0.8271 4.4 0.825406 4.4C0.823712 4.4 0.822019 4.4 0.820327 4.4C0.818635 4.4 0.816943 4.4 0.815253 4.4C0.813562 4.4 0.811873 4.4 0.810184 4.4C0.808495 4.4 0.806807 4.4 0.80512 4.4C0.803433 4.4 0.801747 4.4 0.800062 4.4C0.798377 4.4 0.796693 4.4 0.795009 4.4C0.793326 4.4 0.791644 4.4 0.789962 4.4C0.788281 4.4 0.7866 4.4 0.78492 4.4C0.783241 4.4 0.781562 4.4 0.779884 4.4C0.778207 4.4 0.77653 4.4 0.774854 4.4C0.773178 4.4 0.771503 4.4 0.769829 4.4C0.768156 4.4 0.766483 4.4 0.764811 4.4C0.763139 4.4 0.761468 4.4 0.759798 4.4C0.758128 4.4 0.756459 4.4 0.754791 4.4C0.753124 4.4 0.751457 4.4 0.749791 4.4C0.748125 4.4 0.74646 4.4 0.744796 4.4C0.743133 4.4 0.74147 4.4 0.739808 4.4C0.738147 4.4 0.736486 4.4 0.734826 4.4C0.733167 4.4 0.731508 4.4 0.729851 4.4C0.728194 4.4 0.726537 4.4 0.724882 4.4C0.723227 4.4 0.721573 4.4 0.71992 4.4C0.718267 4.4 0.716615 4.4 0.714964 4.4C0.713313 4.4 0.711663 4.4 0.710015 4.4C0.708366 4.4 0.706719 4.4 0.705072 4.4C0.703426 4.4 0.701781 4.4 0.700137 4.4C0.698493 4.4 0.69685 4.4 0.695208 4.4C0.693566 4.4 0.691926 4.4 0.690286 4.4C0.688647 4.4 0.687009 4.4 0.685372 4.4C0.683735 4.4 0.682099 4.4 0.680464 4.4C0.67883 4.4 0.677196 4.4 0.675564 4.4C0.673932 4.4 0.672301 4.4 0.670671 4.4C0.669042 4.4 0.667413 4.4 0.665786 4.4C0.664158 4.4 0.662532 4.4 0.660908 4.4C0.659283 4.4 0.657659 4.4 0.656037 4.4C0.654415 4.4 0.652794 4.4 0.651174 4.4C0.649554 4.4 0.647936 4.4 0.646318 4.4C0.644701 4.4 0.643085 4.4 0.641471 4.4C0.639856 4.4 0.638243 4.4 0.636631 4.4C0.635019 4.4 0.633408 4.4 0.631799 4.4C0.630189 4.4 0.628581 4.4 0.626975 4.4C0.625368 4.4 0.623763 4.4 0.622159 4.4C0.620555 4.4 0.618952 4.4 0.617351 4.4C0.615749 4.4 0.614149 4.4 0.612551 4.4C0.610952 4.4 0.609355 4.4 0.607759 4.4C0.606164 4.4 0.604569 4.4 0.602976 4.4C0.601383 4.4 0.599791 4.4 0.598201 4.4C0.596611 4.4 0.595022 4.4 0.593435 4.4C0.591848 4.4 0.590262 4.4 0.588677 4.4C0.587093 4.4 0.58551 4.4 0.583928 4.4C0.582346 4.4 0.580766 4.4 0.579187 4.4C0.577609 4.4 0.576031 4.4 0.574456 4.4C0.57288 4.4 0.571306 4.4 0.569733 4.4C0.56816 4.4 0.566589 4.4 0.565019 4.4C0.563449 4.4 0.561881 4.4 0.560314 4.4C0.558747 4.4 0.557182 4.4 0.555618 4.4C0.554054 4.4 0.552492 4.4 0.550931 4.4C0.54937 4.4 0.547811 4.4 0.546253 4.4C0.544696 4.4 0.54314 4.4 0.541585 4.4C0.54003 4.4 0.538477 4.4 0.536926 4.4C0.535375 4.4 0.533825 4.4 0.532277 4.4C0.530728 4.4 0.529182 4.4 0.527636 4.4C0.526091 4.4 0.524548 4.4 0.523006 4.4C0.521464 4.4 0.519924 4.4 0.518385 4.4C0.516847 4.4 0.51531 4.4 0.513774 4.4C0.512239 4.4 0.510705 4.4 0.509173 4.4C0.507641 4.4 0.50611 4.4 0.504581 4.4C0.503053 4.4 0.501525 4.4 0.5 4.4V4.9ZM5.7 6.1L6.2 6.1C6.2 5.59609 6.40018 5.11282 6.7565 4.7565L6.40294 4.40294L6.04939 4.04939C5.50553 4.59325 5.2 5.33087 5.2 6.1L5.7 6.1ZM6.40294 4.40294L6.7565 4.7565C7.11282 4.40018 7.59609 4.2 8.1 4.2V3.7V3.2C7.33087 3.2 6.59325 3.50553 6.04939 4.04939L6.40294 4.40294ZM8.1 3.7V4.2C8.60391 4.2 9.08718 4.40018 9.4435 4.7565L9.79706 4.40294L10.1506 4.04939C9.60675 3.50553 8.86913 3.2 8.1 3.2V3.7ZM9.79706 4.40294L9.4435 4.7565C9.79982 5.11282 10 5.59609 10 6.1H10.5H11C11 5.33087 10.6945 4.59325 10.1506 4.04939L9.79706 4.40294ZM8.1 3.7V4.2C8.65696 4.2 9.1911 3.97875 9.58492 3.58492L9.23137 3.23137L8.87782 2.87782C8.67153 3.08411 8.39174 3.2 8.1 3.2V3.7ZM9.23137 3.23137L9.58492 3.58492C9.97875 3.1911 10.2 2.65696 10.2 2.1H9.7H9.2C9.2 2.39174 9.08411 2.67153 8.87782 2.87782L9.23137 3.23137ZM9.7 2.1H10.2C10.2 1.54305 9.97875 1.0089 9.58492 0.615076L9.23137 0.968629L8.87782 1.32218C9.08411 1.52847 9.2 1.80826 9.2 2.1H9.7ZM9.23137 0.968629L9.58492 0.615076C9.1911 0.22125 8.65696 0 8.1 0V0.5V1C8.39174 1 8.67153 1.11589 8.87782 1.32218L9.23137 0.968629ZM8.1 0.5V0C7.54305 0 7.0089 0.22125 6.61508 0.615076L6.96863 0.968629L7.32218 1.32218C7.52847 1.11589 7.80826 1 8.1 1V0.5ZM6.96863 0.968629L6.61508 0.615076C6.22125 1.0089 6 1.54305 6 2.1H6.5H7C7 1.80826 7.11589 1.52847 7.32218 1.32218L6.96863 0.968629ZM6.5 2.1H6C6 2.65696 6.22125 3.1911 6.61508 3.58492L6.96863 3.23137L7.32218 2.87782C7.11589 2.67153 7 2.39174 7 2.1H6.5ZM6.96863 3.23137L6.61508 3.58492C7.0089 3.97875 7.54305 4.2 8.1 4.2V3.7V3.2C7.80826 3.2 7.52847 3.08411 7.32218 2.87782L6.96863 3.23137Z" fill="var(--stroke-0, #2E3033)"/>
</svg>
