<svg preserveAspectRatio="none" width="100%" height="100%" overflow="visible" style="display: block;" viewBox="0 0 17.0001 18.7778" fill="none" xmlns="http://www.w3.org/2000/svg">
<path id="Vector" d="M14.4636 1.82889C12.7818 0.992444 10.7223 0.5 8.50004 0.5C6.27781 0.5 4.21915 0.992444 2.53648 1.82889C1.71159 2.23956 1.29915 2.44489 0.900036 3.09022C0.500925 3.73556 0.500036 4.36044 0.500036 5.60933V8.71156C0.500036 13.7631 4.53737 16.572 6.87604 17.7747C7.52848 18.1098 7.85381 18.2778 8.50004 18.2778C9.14626 18.2778 9.47159 18.1098 10.124 17.7747C12.4618 16.5711 16.5 13.7622 16.5 8.71067V5.60933C16.5 4.36044 16.5 3.73556 16.1 3.09022C15.7 2.44489 15.2885 2.23956 14.4636 1.82889Z" stroke="var(--stroke-0, #2E3033)" stroke-linecap="round" stroke-linejoin="round"/>
</svg>
